<?xml version="1.0" standalone="no"?>
<!DOCTYPE svg PUBLIC "-//W3C//DTD SVG 1.1//EN" "http://www.w3.org/Graphics/SVG/1.1/DTD/svg11.dtd">
<svg xmlns="http://www.w3.org/2000/svg" xmlns:xlink="http://www.w3.org/1999/xlink" id="Layer_1" data-name="Layer 1" viewBox="0 0 792 612" width="792" height="612"><defs><style>.cls-1{fill:none;}.cls-2{fill:#164194;}.cls-3{clip-path:url(#clip-path);}.cls-4{fill:#5bc5f2;}</style><clipPath id="clip-path"><rect class="cls-1" x="112.38" y="358.47" width="533.76" height="80.9"/></clipPath></defs><path class="cls-2" d="M503.31,221.65H436.13v36.56h3.32v91l25.77-.24V258.21h14.17V312.9h-7.87v36.56h37.15l0-.91-.05-121.93c0-2.06-2.48-5-5.33-5"/><path class="cls-2" d="M184.87,221.65H124v89H112.39v37.89h37.09V258.21h15.26v90.33h25.53l-.07-121.15c0-2.61-2.12-5.74-5.33-5.74"/><path class="cls-2" d="M228.19,221.64H199.42v36.57h4.72v90.33h29.31V226.91a5.6,5.6,0,0,0-5.26-5.27"/><path class="cls-2" d="M342.18,221.64H313.42v36.57h4.71v90.33h29.32V226.91a5.22,5.22,0,0,0-5.27-5.27"/><path class="cls-2" d="M301.1,221.65H240.75v36.56h36.43v90.33h29.31l-.07-122.79c-.05-1.29-2.71-4.1-5.32-4.1"/><path class="cls-2" d="M383.07,286.32H357.31v94.34a90.1,90.1,0,0,0,25.76,5.23ZM426.3,343.8l-.06-116.67a5.14,5.14,0,0,0-5.33-5.48H358v36.56h39V312.9h-7.87v36.56h31.52c2.48,0,5.66-1.25,5.66-5.66"/><g class="cls-3"><path class="cls-4" d="M647.84,393.22a86.55,86.55,0,0,1-22.27,2.9c-16.2,0-29.84-6.06-45.63-13.08-19.39-8.62-41.35-18.4-72.1-18.4-29.69,0-51.16,9.57-70.09,18-16.47,7.33-30.69,13.67-48.63,13.67-18.19,0-34-6.92-50.66-14.24-18.85-8.26-40.22-17.63-67.27-17.63-28,0-50.62,9.73-70.57,18.31-17.14,7.39-31.94,13.76-48,13.76-33.15,0-68.85-30.64-69.9-31.54v32.46c16.58,11,43,25.11,69.9,25.11,21.38,0,40.13-8.07,58.26-15.88,18.49-8,37.61-16.19,60.26-16.19,21.59,0,38.69,7.5,56.8,15.44,18.43,8.08,37.48,16.43,61.13,16.43,23.48,0,41.66-8.1,59.23-15.93,18.18-8.1,35.34-15.74,59.49-15.74,25.21,0,43.66,8.2,61.51,16.14,16.95,7.54,34.49,15.34,56.22,15.34A115.94,115.94,0,0,0,647.84,420Z"/></g><path class="cls-2" d="M126.64,471.76V455.87c0-2.14-.76-3.8-3.4-3.8h-7v19.16a.51.51,0,0,1-.54.53h-6.84v-3.17h3.49v-19.7h11.8c4.25,0,6.35,2.51,6.35,7v15.84Zm16.13-10.69v-9h-3.31v-3.18h6.66a.53.53,0,0,1,.54.54v11.64Zm32.09,10.69h-9.43v-3.17H172V457c0-2.33-1.52-5.24-4.52-5h-4.56l-2.14,19.69h-3.93l2.32-19.69h-3.35v-3.18h11.66c5.23,0,8.36,3.54,8.36,8.15v12Zm12.6,0V452.07h-3.13v-3.18h6.48a.55.55,0,0,1,.54.54v22.33Zm32.22.72-8.63-8.59-3.84-5.6-4.33,13.47h-3.94l5.5-16.69-3.71-4.79,2.86-2.37,9.12,12.17,4.42-11.19h4.92v3.18h-1.92l-4.78,11L222.5,470Zm19.66-.72h-4.15l9.29-19.69H230.09v-8.59h3.84v5.41h14.31a.51.51,0,0,1,.49.54l0,2.64Zm31.82,0V455.87c0-2.14-.8-3.8-3.39-3.8H257.26v-3.18H268.7c4.21,0,6.31,2.51,6.31,7v15.84Zm-13.9,0v-13.2h3.89v13.2Zm57.79,0H296.54a.42.42,0,0,1-.53-.44V449.43a.52.52,0,0,1,.53-.54h18.51a.54.54,0,0,1,.53.54v21.71A.65.65,0,0,1,315.05,471.76ZM299.9,452.07v16.52h11.79V452.07Zm27.93,9v-9h-3.31v-3.18h6.66a.52.52,0,0,1,.53.54v11.64Zm32.08,10.69h-9.43v-3.17h6.57V457c0-2.33-1.52-5.24-4.51-5H348l-2.14,19.69H341.9l2.33-19.69h-3.36v-3.18h11.67c5.23,0,8.36,3.54,8.36,8.15v12Zm24.72,0V455.87c0-2.14-.81-3.8-3.4-3.8h-10.5v-3.18h11.44c4.2,0,6.3,2.51,6.3,7v15.84Zm-13.9,0v-13.2h3.89v13.2Zm55.59,0V455.87c0-2.14-.76-3.8-3.39-3.8h-7v19.16a.51.51,0,0,1-.53.53h-6.84v-3.17h3.48v-19.7h11.8c4.25,0,6.35,2.51,6.35,7v15.84Zm23.95,0V452.07H439.15v-3.18h14.48a.52.52,0,0,1,.53.54v22.33Zm12.83,0v-3.17h11.75V455.87c0-2.14-.8-3.8-3.39-3.8H463.1v-3.18h9.3c4.24,0,6.34,2.51,6.34,7v12.67h2.82v3.17Zm41.61,0V452.07H494.38v19.69h-3.89V448.89h17.57a.53.53,0,0,1,.54.54v22.33Z"/><path class="cls-2" d="M551.93,249.67a12.38,12.38,0,1,0-12.51-12.38A12.45,12.45,0,0,0,551.93,249.67Z"/><path class="cls-2" d="M563.7,291.35A53.35,53.35,0,0,1,594.87,243l4.1-32.5a84,84,0,0,0-34.11,16.54,16.38,16.38,0,0,1,3.77,10.38A16.7,16.7,0,0,1,543.91,252a81.7,81.7,0,0,0-10.1,39.38,82.79,82.79,0,0,0,45.62,73.79l4.11-32.45A53.05,53.05,0,0,1,563.7,291.35Z"/><path class="cls-2" d="M618.1,165.19a8.14,8.14,0,1,0-8.25-8.14A8.19,8.19,0,0,0,618.1,165.19Z"/><path class="cls-2" d="M636.8,210.49l4.08,32.69A53.4,53.4,0,0,1,672,291.54a52.38,52.38,0,0,1-2.42,15.77H648.78l3.48,25.48h0l1.57,12.25h28.11a81.94,81.94,0,0,0,20-53.7C701.94,251.93,674.1,219,636.8,210.49Z"/><path class="cls-2" d="M623.31,168.21,633.52,300.3H643L626.51,166.1A12.51,12.51,0,0,1,623.31,168.21Z"/><path class="cls-2" d="M609.55,166,593.05,300.3h9.48l10.22-132.15A12.69,12.69,0,0,1,609.55,166Z"/><path class="cls-2" d="M620.21,169.17a13.57,13.57,0,0,1-2.11.19,12.34,12.34,0,0,1-2.45-.24V264.9l-3.6,2.5V291l5.73,9.29,2.5-2.22-1.67-4.21,5.18-2.86V267.4l-3.58-2.5Z"/><polygon class="cls-4" points="600.87 322.02 617.88 331.35 617.91 331.39 617.92 331.38 617.93 331.39 617.97 331.35 634.97 322.02 636.96 345.52 648.42 345.52 643.77 307.89 633.76 307.89 617.92 317.35 602.08 307.89 592.08 307.89 587.42 345.52 598.89 345.52 600.87 322.02"/><path class="cls-4" d="M645.25,369.07a24.9,24.9,0,0,0-18.69,0,23.86,23.86,0,0,1-16.16,0,30.44,30.44,0,0,0-9.34-1.82,30.09,30.09,0,0,0-9.35,1.82c-.67.23-.73.24-1,.35l-.65.15a84.29,84.29,0,0,0,13.8,3.51,90.56,90.56,0,0,0,14.33,1.13c1.79,0,3.46,0,5-.14a84.34,84.34,0,0,0,22.69-4.54C646.27,369.37,646.08,369.35,645.25,369.07Z"/><path class="cls-4" d="M653.35,360.64h-.1a26.81,26.81,0,0,1-7.82-1.37,30.32,30.32,0,0,0-9.51-1.86c-5.06,0-11.1,3.23-17.6,3.23a25,25,0,0,1-7.76-1.37,25.37,25.37,0,0,0-19,0,29.26,29.26,0,0,1-6,1.26l-.61,5a31.91,31.91,0,0,0,8.18-1.6,32.17,32.17,0,0,1,8-1.59A31.13,31.13,0,0,1,609,364a28.56,28.56,0,0,0,19,0,26.7,26.7,0,0,1,8-1.59,25.81,25.81,0,0,1,7.85,1.59,31,31,0,0,0,9.51,1.63l1.94,0h0a83.88,83.88,0,0,0,8.38-4.73c1.37-.94,4.55-3.18,4.55-3.18a53.23,53.23,0,0,0-7,1.57A26.53,26.53,0,0,1,653.35,360.64Z"/><path class="cls-4" d="M677.32,348.63a26.7,26.7,0,0,0-6.84-1,30.87,30.87,0,0,0-9.51,1.85,26.69,26.69,0,0,1-7.89,1.38,22.9,22.9,0,0,1-8-1.38,25.39,25.39,0,0,0-19,0,26.07,26.07,0,0,1-8,1.38,27,27,0,0,1-7.83-1.38,25.37,25.37,0,0,0-19,0,29.52,29.52,0,0,1-4.44,1.08l-.63,5.08a32.58,32.58,0,0,0,6.66-1.47,27.22,27.22,0,0,1,8-1.59,25.94,25.94,0,0,1,7.85,1.59,28.42,28.42,0,0,0,19,0,27.9,27.9,0,0,1,8-1.59,26.73,26.73,0,0,1,7.86,1.59,28.39,28.39,0,0,0,19,0,26.9,26.9,0,0,1,7.85-1.59,14,14,0,0,1,3.34.34l.4.09c1.09-1,2.15-1.94,3.18-3l.1-.09c.33-.33.64-.67,1-1Z"/></svg>